<svg xmlns="http://www.w3.org/2000/svg" xmlns:xlink="http://www.w3.org/1999/xlink" width="720" zoomAndPan="magnify" viewBox="0 0 540 540.000001" height="720" preserveAspectRatio="xMidYMid meet" version="1.0"><defs><g/><clipPath id="9965043708"><path d="M 469 201 L 507 201 L 507 247 L 469 247 Z M 469 201 " clip-rule="nonzero"/></clipPath><clipPath id="548e3f6784"><path d="M 474.390625 201.894531 L 506.207031 216.792969 L 482.542969 267.328125 L 450.726562 252.425781 Z M 474.390625 201.894531 " clip-rule="nonzero"/></clipPath><clipPath id="1e5f9769d1"><path d="M 474.390625 201.894531 L 506.207031 216.792969 L 482.542969 267.328125 L 450.726562 252.425781 Z M 474.390625 201.894531 " clip-rule="nonzero"/></clipPath><clipPath id="f910151a6a"><path d="M 474.390625 201.894531 L 506.207031 216.792969 L 482.542969 267.328125 L 450.726562 252.425781 Z M 474.390625 201.894531 " clip-rule="nonzero"/></clipPath><clipPath id="e2465cd364"><path d="M 466 246 L 474 246 L 474 260 L 466 260 Z M 466 246 " clip-rule="nonzero"/></clipPath><clipPath id="6b6337fb77"><path d="M 474.390625 201.894531 L 506.207031 216.792969 L 482.542969 267.328125 L 450.726562 252.425781 Z M 474.390625 201.894531 " clip-rule="nonzero"/></clipPath><clipPath id="f854dc7d2a"><path d="M 474.390625 201.894531 L 506.207031 216.792969 L 482.542969 267.328125 L 450.726562 252.425781 Z M 474.390625 201.894531 " clip-rule="nonzero"/></clipPath><clipPath id="83d3748131"><path d="M 474.390625 201.894531 L 506.207031 216.792969 L 482.542969 267.328125 L 450.726562 252.425781 Z M 474.390625 201.894531 " clip-rule="nonzero"/></clipPath><clipPath id="623b19b77b"><path d="M 466 268 L 476.484375 268 L 476.484375 273 L 466 273 Z M 466 268 " clip-rule="nonzero"/></clipPath><clipPath id="9adf43ad7c"><path d="M 458 269 L 463 269 L 463 280.214844 L 458 280.214844 Z M 458 269 " clip-rule="nonzero"/></clipPath><clipPath id="455112729a"><path d="M 450.648438 262 L 462 262 L 462 267 L 450.648438 267 Z M 450.648438 262 " clip-rule="nonzero"/></clipPath><clipPath id="90f9abe4e2"><path d="M 464 254.382812 L 469 254.382812 L 469 265 L 464 265 Z M 464 254.382812 " clip-rule="nonzero"/></clipPath><clipPath id="0f093cd5a9"><path d="M 213.808594 282.195312 L 478.34375 282.195312 L 478.34375 283.230469 L 213.808594 283.230469 Z M 213.808594 282.195312 " clip-rule="nonzero"/></clipPath></defs><g clip-path="url(#9965043708)"><g clip-path="url(#548e3f6784)"><g clip-path="url(#1e5f9769d1)"><g clip-path="url(#f910151a6a)"><path fill="#000000" d="M 506.066406 216.855469 L 474.34375 201.996094 L 470.546875 210.101562 L 475.210938 212.285156 L 471.996094 219.152344 L 474.890625 220.507812 L 469.542969 231.921875 L 471.816406 244.640625 L 473.152344 245.265625 L 473.683594 245.515625 L 475.019531 246.140625 L 486.246094 239.742188 L 491.605469 228.296875 L 494.496094 229.652344 L 497.699219 222.816406 L 502.363281 225.003906 L 506.160156 216.898438 Z M 485.503906 239.058594 L 474.945312 245.085938 L 474.011719 244.648438 L 473.484375 244.402344 L 472.550781 243.964844 L 470.421875 231.992188 L 475.648438 220.828125 L 490.734375 227.890625 Z M 493.988281 228.472656 L 473.152344 218.714844 L 475.988281 212.652344 L 496.859375 222.425781 L 494.019531 228.488281 Z M 501.871094 223.789062 L 498.011719 221.984375 L 475.558594 211.46875 L 471.699219 209.660156 L 474.742188 203.164062 L 504.910156 217.292969 Z M 501.871094 223.789062 " fill-opacity="1" fill-rule="nonzero"/></g></g></g></g><g clip-path="url(#e2465cd364)"><g clip-path="url(#6b6337fb77)"><g clip-path="url(#f854dc7d2a)"><g clip-path="url(#83d3748131)"><path fill="#000000" d="M 472.578125 246.015625 L 473.386719 246.394531 L 467.039062 259.941406 L 466.230469 259.5625 Z M 472.578125 246.015625 " fill-opacity="1" fill-rule="nonzero"/></g></g></g></g><path fill="#000000" d="M 464.050781 267.117188 C 463.9375 266.867188 463.636719 266.753906 463.386719 266.867188 C 463.136719 266.980469 463.023438 267.277344 463.136719 267.53125 C 463.246094 267.78125 463.546875 267.894531 463.796875 267.78125 C 464.050781 267.667969 464.164062 267.371094 464.050781 267.117188 " fill-opacity="1" fill-rule="nonzero"/><path fill="#000000" d="M 470.894531 264.042969 C 470.835938 263.914062 470.683594 263.855469 470.554688 263.914062 L 464.996094 266.410156 C 464.867188 266.46875 464.808594 266.621094 464.867188 266.75 C 464.910156 266.847656 465.003906 266.902344 465.101562 266.902344 C 465.136719 266.902344 465.171875 266.894531 465.207031 266.878906 L 470.765625 264.382812 C 470.894531 264.324219 470.953125 264.171875 470.894531 264.042969 " fill-opacity="1" fill-rule="nonzero"/><path fill="#000000" d="M 464.503906 268.726562 C 464.445312 268.597656 464.292969 268.539062 464.164062 268.597656 C 464.035156 268.65625 463.980469 268.808594 464.035156 268.9375 L 466.535156 274.496094 C 466.578125 274.589844 466.671875 274.648438 466.769531 274.648438 C 466.804688 274.648438 466.839844 274.640625 466.875 274.625 C 467.003906 274.566406 467.0625 274.414062 467.003906 274.285156 L 464.503906 268.726562 " fill-opacity="1" fill-rule="nonzero"/><path fill="#000000" d="M 456.289062 270.605469 C 456.332031 270.699219 456.425781 270.757812 456.523438 270.757812 C 456.558594 270.757812 456.59375 270.75 456.628906 270.734375 L 462.1875 268.234375 C 462.316406 268.179688 462.375 268.023438 462.316406 267.894531 C 462.257812 267.765625 462.109375 267.710938 461.980469 267.769531 L 456.417969 270.265625 C 456.289062 270.324219 456.230469 270.476562 456.289062 270.605469 " fill-opacity="1" fill-rule="nonzero"/><path fill="#000000" d="M 463.148438 265.710938 L 460.648438 260.152344 C 460.589844 260.023438 460.441406 259.964844 460.308594 260.023438 C 460.179688 260.082031 460.125 260.230469 460.183594 260.359375 L 462.679688 265.921875 C 462.722656 266.015625 462.816406 266.070312 462.914062 266.070312 C 462.949219 266.070312 462.984375 266.066406 463.019531 266.050781 C 463.148438 265.992188 463.207031 265.839844 463.148438 265.710938 " fill-opacity="1" fill-rule="nonzero"/><g clip-path="url(#623b19b77b)"><path fill="#000000" d="M 476.316406 271.882812 L 466.378906 268.109375 C 466.246094 268.058594 466.097656 268.125 466.050781 268.257812 C 466 268.390625 466.066406 268.535156 466.195312 268.585938 L 476.136719 272.363281 C 476.167969 272.375 476.195312 272.378906 476.226562 272.378906 C 476.332031 272.378906 476.429688 272.316406 476.46875 272.210938 C 476.515625 272.082031 476.449219 271.933594 476.316406 271.882812 " fill-opacity="1" fill-rule="nonzero"/></g><g clip-path="url(#9adf43ad7c)"><path fill="#000000" d="M 462.660156 269.78125 C 462.527344 269.730469 462.378906 269.796875 462.328125 269.929688 L 458.554688 279.867188 C 458.503906 280 458.570312 280.148438 458.703125 280.199219 C 458.734375 280.207031 458.765625 280.214844 458.792969 280.214844 C 458.898438 280.214844 458.992188 280.152344 459.035156 280.050781 L 462.808594 270.113281 C 462.859375 269.980469 462.789062 269.832031 462.660156 269.78125 " fill-opacity="1" fill-rule="nonzero"/></g><g clip-path="url(#455112729a)"><path fill="#000000" d="M 460.894531 266.554688 C 460.996094 266.554688 461.097656 266.492188 461.136719 266.390625 C 461.183594 266.257812 461.117188 266.109375 460.984375 266.0625 L 451.046875 262.285156 C 450.917969 262.234375 450.769531 262.300781 450.71875 262.433594 C 450.667969 262.566406 450.734375 262.714844 450.867188 262.765625 L 460.804688 266.539062 C 460.835938 266.550781 460.863281 266.554688 460.894531 266.554688 " fill-opacity="1" fill-rule="nonzero"/></g><g clip-path="url(#90f9abe4e2)"><path fill="#000000" d="M 464.523438 264.867188 C 464.554688 264.878906 464.585938 264.882812 464.617188 264.882812 C 464.71875 264.882812 464.816406 264.820312 464.855469 264.71875 L 468.628906 254.78125 C 468.679688 254.648438 468.613281 254.5 468.480469 254.449219 C 468.351562 254.398438 468.199219 254.464844 468.152344 254.597656 L 464.378906 264.535156 C 464.324219 264.667969 464.390625 264.816406 464.523438 264.867188 " fill-opacity="1" fill-rule="nonzero"/></g><path fill="#000000" d="M 465.738281 269.269531 C 465.644531 269.164062 465.480469 269.15625 465.375 269.25 C 465.273438 269.347656 465.265625 269.511719 465.363281 269.613281 L 472.585938 277.417969 C 472.632812 277.472656 472.703125 277.496094 472.773438 277.496094 C 472.835938 277.496094 472.898438 277.476562 472.949219 277.429688 C 473.050781 277.335938 473.058594 277.171875 472.960938 277.070312 L 465.738281 269.269531 " fill-opacity="1" fill-rule="nonzero"/><path fill="#000000" d="M 461.664062 269.109375 C 461.566406 269.003906 461.40625 268.996094 461.300781 269.09375 L 453.5 276.316406 C 453.394531 276.410156 453.390625 276.574219 453.484375 276.679688 C 453.535156 276.734375 453.605469 276.761719 453.675781 276.761719 C 453.738281 276.761719 453.800781 276.738281 453.847656 276.691406 L 461.648438 269.472656 C 461.753906 269.375 461.757812 269.214844 461.664062 269.109375 " fill-opacity="1" fill-rule="nonzero"/><path fill="#000000" d="M 461.445312 265.382812 C 461.496094 265.4375 461.5625 265.460938 461.632812 265.460938 C 461.695312 265.460938 461.757812 265.441406 461.808594 265.394531 C 461.910156 265.300781 461.917969 265.136719 461.820312 265.035156 L 454.597656 257.230469 C 454.503906 257.128906 454.339844 257.121094 454.238281 257.21875 C 454.132812 257.3125 454.128906 257.476562 454.222656 257.578125 L 461.445312 265.382812 " fill-opacity="1" fill-rule="nonzero"/><path fill="#000000" d="M 465.519531 265.539062 C 465.574219 265.59375 465.640625 265.621094 465.710938 265.621094 C 465.773438 265.621094 465.835938 265.597656 465.882812 265.554688 L 473.683594 258.332031 C 473.789062 258.234375 473.792969 258.074219 473.699219 257.96875 C 473.601562 257.863281 473.441406 257.859375 473.335938 257.957031 L 465.535156 265.175781 C 465.429688 265.273438 465.425781 265.433594 465.519531 265.539062 " fill-opacity="1" fill-rule="nonzero"/><path fill="#000000" d="M 463.519531 269.25 C 463.378906 269.242188 463.257812 269.355469 463.25 269.496094 L 462.941406 277.542969 C 462.9375 277.683594 463.046875 277.800781 463.1875 277.808594 C 463.191406 277.808594 463.195312 277.808594 463.199219 277.808594 C 463.335938 277.808594 463.449219 277.699219 463.453125 277.5625 L 463.761719 269.515625 C 463.769531 269.375 463.660156 269.253906 463.519531 269.25 " fill-opacity="1" fill-rule="nonzero"/><path fill="#000000" d="M 461.410156 267.496094 C 461.546875 267.496094 461.660156 267.386719 461.664062 267.25 C 461.671875 267.109375 461.558594 266.988281 461.417969 266.984375 L 453.375 266.671875 C 453.234375 266.667969 453.113281 266.777344 453.109375 266.917969 C 453.101562 267.058594 453.214844 267.179688 453.355469 267.183594 L 461.398438 267.496094 C 461.402344 267.496094 461.40625 267.496094 461.410156 267.496094 " fill-opacity="1" fill-rule="nonzero"/><path fill="#000000" d="M 463.667969 265.394531 C 463.671875 265.398438 463.671875 265.398438 463.675781 265.398438 C 463.8125 265.398438 463.925781 265.289062 463.933594 265.152344 L 464.242188 257.105469 C 464.25 256.964844 464.136719 256.847656 463.996094 256.839844 C 463.863281 256.832031 463.738281 256.945312 463.730469 257.085938 L 463.421875 265.128906 C 463.414062 265.273438 463.527344 265.390625 463.667969 265.394531 " fill-opacity="1" fill-rule="nonzero"/><path fill="#000000" d="M 465.519531 267.398438 C 465.515625 267.539062 465.625 267.660156 465.765625 267.664062 L 473.808594 267.972656 C 473.8125 267.972656 473.816406 267.972656 473.820312 267.972656 C 473.957031 267.972656 474.070312 267.867188 474.078125 267.730469 C 474.082031 267.585938 473.972656 267.46875 473.832031 267.460938 L 465.785156 267.152344 C 465.648438 267.148438 465.523438 267.257812 465.519531 267.398438 " fill-opacity="1" fill-rule="nonzero"/><g fill="#000000" fill-opacity="1"><g transform="translate(15.73616, 316.766814)"><g><path d="M 33.433594 -52.859375 L 33.433594 -86.289062 C 33.433594 -88.800781 34.488281 -89.859375 37 -89.859375 L 50.742188 -89.859375 C 60.390625 -89.859375 66.734375 -83.910156 66.734375 -72.945312 C 66.734375 -61.445312 61.976562 -52.859375 46.25 -52.859375 Z M 8.191406 0 L 48.761719 0 L 48.761719 -4.230469 L 37 -4.230469 C 34.226562 -4.230469 33.433594 -5.417969 33.433594 -7.796875 L 33.433594 -48.628906 L 47.835938 -48.628906 C 57.484375 -48.628906 60.652344 -38.453125 60.785156 -28.015625 C 60.917969 -19.160156 61.710938 -10.175781 64.617188 -4.625 C 66.996094 -0.132812 70.960938 1.585938 76.644531 1.585938 C 90.253906 1.585938 90.386719 -15.066406 90.386719 -21.144531 L 87.082031 -21.144531 C 87.082031 -15.59375 86.421875 -6.871094 81.402344 -6.871094 C 77.039062 -6.871094 76.246094 -10.308594 74.53125 -24.050781 C 72.152344 -43.34375 64.355469 -48.101562 55.765625 -49.6875 L 55.765625 -50.214844 C 68.449219 -51.535156 80.738281 -59.199219 80.738281 -72.945312 C 80.738281 -89.460938 66.46875 -94.085938 51.535156 -94.085938 L 8.191406 -94.085938 L 8.191406 -89.859375 L 17.707031 -89.859375 C 20.21875 -89.859375 21.273438 -88.800781 21.273438 -86.289062 L 21.273438 -7.796875 C 21.273438 -5.417969 20.21875 -4.230469 17.707031 -4.230469 L 8.191406 -4.230469 Z M 8.191406 0 "/></g></g></g><g fill="#000000" fill-opacity="1"><g transform="translate(110.33242, 316.766814)"><g><path d="M 33.433594 -7.796875 L 33.433594 -47.042969 L 51.273438 -47.042969 C 60.523438 -47.042969 69.773438 -42.816406 69.773438 -25.636719 C 69.773438 -8.457031 60.390625 -4.230469 51.273438 -4.230469 L 37 -4.230469 C 34.488281 -4.230469 33.433594 -5.417969 33.433594 -7.796875 Z M 8.191406 0 L 52.726562 0 C 69.375 0 83.78125 -8.984375 83.78125 -25.636719 C 83.78125 -39.378906 71.09375 -47.96875 60.652344 -48.761719 L 60.652344 -49.289062 C 70.300781 -51.273438 80.871094 -58.804688 80.871094 -71.621094 C 80.871094 -84.835938 66.996094 -94.085938 51.273438 -94.085938 L 8.191406 -94.085938 L 8.191406 -89.859375 L 17.707031 -89.859375 C 20.21875 -89.859375 21.273438 -88.800781 21.273438 -86.289062 L 21.273438 -7.796875 C 21.273438 -5.417969 20.21875 -4.230469 17.707031 -4.230469 L 8.191406 -4.230469 Z M 33.433594 -51.273438 L 33.433594 -86.289062 C 33.433594 -88.800781 34.488281 -89.859375 37 -89.859375 L 51.800781 -89.859375 C 61.445312 -89.859375 69.242188 -82.324219 69.242188 -71.621094 C 69.242188 -60.917969 66.335938 -51.273438 50.742188 -51.273438 Z M 33.433594 -51.273438 "/></g></g></g><g fill="#000000" fill-opacity="1"><g transform="translate(210.832991, 315.733566)"><g><path d="M 0.96875 -7.234375 C 0.96875 -7.703125 1 -8.171875 1.0625 -8.640625 C 1.125 -9.109375 1.226562 -9.601562 1.375 -10.125 C 1.519531 -10.644531 1.703125 -11.132812 1.921875 -11.59375 C 2.148438 -12.0625 2.441406 -12.507812 2.796875 -12.9375 C 3.160156 -13.375 3.566406 -13.742188 4.015625 -14.046875 C 4.472656 -14.347656 5.019531 -14.585938 5.65625 -14.765625 C 6.289062 -14.953125 6.984375 -15.046875 7.734375 -15.046875 C 10.960938 -15.046875 12.867188 -13.4375 13.453125 -10.21875 L 11.515625 -10.21875 C 11.296875 -11.28125 10.867188 -12.070312 10.234375 -12.59375 C 9.597656 -13.125 8.691406 -13.390625 7.515625 -13.390625 C 6.085938 -13.390625 4.953125 -12.835938 4.109375 -11.734375 C 3.273438 -10.640625 2.859375 -9.144531 2.859375 -7.25 C 2.859375 -5.394531 3.289062 -3.921875 4.15625 -2.828125 C 5.03125 -1.742188 6.203125 -1.203125 7.671875 -1.203125 C 8.890625 -1.203125 9.820312 -1.546875 10.46875 -2.234375 C 11.125 -2.921875 11.566406 -3.976562 11.796875 -5.40625 L 13.75 -5.40625 C 13.289062 -1.488281 11.257812 0.46875 7.65625 0.46875 C 6.800781 0.46875 6.019531 0.347656 5.3125 0.109375 C 4.601562 -0.128906 4.007812 -0.453125 3.53125 -0.859375 C 3.0625 -1.273438 2.65625 -1.734375 2.3125 -2.234375 C 1.96875 -2.742188 1.703125 -3.296875 1.515625 -3.890625 C 1.328125 -4.484375 1.1875 -5.050781 1.09375 -5.59375 C 1.007812 -6.144531 0.96875 -6.691406 0.96875 -7.234375 Z M 0.96875 -7.234375 "/></g></g></g><g fill="#000000" fill-opacity="1"><g transform="translate(229.989354, 315.733566)"><g><path d="M 15.078125 -7.171875 C 15.078125 -6.109375 14.910156 -5.109375 14.578125 -4.171875 C 14.242188 -3.242188 13.769531 -2.4375 13.15625 -1.75 C 12.550781 -1.0625 11.796875 -0.519531 10.890625 -0.125 C 9.992188 0.269531 9.003906 0.46875 7.921875 0.46875 C 5.785156 0.46875 4.054688 -0.242188 2.734375 -1.671875 C 1.421875 -3.097656 0.765625 -4.972656 0.765625 -7.296875 C 0.765625 -9.597656 1.421875 -11.460938 2.734375 -12.890625 C 4.054688 -14.328125 5.78125 -15.046875 7.90625 -15.046875 C 10.070312 -15.046875 11.804688 -14.328125 13.109375 -12.890625 C 14.421875 -11.460938 15.078125 -9.554688 15.078125 -7.171875 Z M 7.90625 -13.390625 C 6.332031 -13.390625 5.0625 -12.828125 4.09375 -11.703125 C 3.132812 -10.585938 2.65625 -9.113281 2.65625 -7.28125 C 2.65625 -5.457031 3.132812 -3.988281 4.09375 -2.875 C 5.0625 -1.757812 6.335938 -1.203125 7.921875 -1.203125 C 9.484375 -1.203125 10.75 -1.753906 11.71875 -2.859375 C 12.695312 -3.972656 13.1875 -5.421875 13.1875 -7.203125 C 13.1875 -9.078125 12.703125 -10.578125 11.734375 -11.703125 C 10.773438 -12.828125 9.5 -13.390625 7.90625 -13.390625 Z M 7.90625 -13.390625 "/></g></g></g><g fill="#000000" fill-opacity="1"><g transform="translate(250.28586, 315.733566)"><g><path d="M 10.890625 -7.3125 C 11.390625 -7.101562 11.789062 -6.835938 12.09375 -6.515625 C 12.394531 -6.191406 12.597656 -5.851562 12.703125 -5.5 C 12.804688 -5.15625 12.867188 -4.789062 12.890625 -4.40625 C 12.921875 -4.03125 12.929688 -3.648438 12.921875 -3.265625 C 12.910156 -2.890625 12.910156 -2.53125 12.921875 -2.1875 C 12.929688 -1.84375 13.003906 -1.515625 13.140625 -1.203125 C 13.285156 -0.898438 13.503906 -0.65625 13.796875 -0.46875 L 13.796875 0 L 11.5 0 C 11.226562 -0.632812 11.09375 -1.441406 11.09375 -2.421875 L 11.09375 -3.734375 C 11.09375 -4.648438 10.894531 -5.316406 10.5 -5.734375 C 10.113281 -6.160156 9.5 -6.375 8.65625 -6.375 L 3.78125 -6.375 L 3.78125 0 L 1.890625 0 L 1.890625 -14.8125 L 8.71875 -14.8125 C 10.175781 -14.8125 11.289062 -14.46875 12.0625 -13.78125 C 12.832031 -13.101562 13.21875 -12.125 13.21875 -10.84375 C 13.21875 -9.988281 13.035156 -9.285156 12.671875 -8.734375 C 12.304688 -8.191406 11.710938 -7.71875 10.890625 -7.3125 Z M 11.25 -10.578125 C 11.25 -11.097656 11.175781 -11.53125 11.03125 -11.875 C 10.882812 -12.21875 10.671875 -12.476562 10.390625 -12.65625 C 10.109375 -12.832031 9.804688 -12.957031 9.484375 -13.03125 C 9.160156 -13.101562 8.78125 -13.140625 8.34375 -13.140625 L 3.78125 -13.140625 L 3.78125 -8.046875 L 8.34375 -8.046875 C 9.351562 -8.046875 10.085938 -8.25 10.546875 -8.65625 C 11.015625 -9.0625 11.25 -9.703125 11.25 -10.578125 Z M 11.25 -10.578125 "/></g></g></g><g fill="#000000" fill-opacity="1"><g transform="translate(269.442223, 315.733566)"><g><path d="M 7.1875 -13.140625 L 7.1875 0 L 5.296875 0 L 5.296875 -13.140625 L 0.421875 -13.140625 L 0.421875 -14.8125 L 12.046875 -14.8125 L 12.046875 -13.140625 Z M 7.1875 -13.140625 "/></g></g></g><g fill="#000000" fill-opacity="1"><g transform="translate(286.340868, 315.733566)"><g><path d="M 3.71875 -6.75 L 3.71875 -1.671875 L 12.453125 -1.671875 L 12.453125 0 L 1.828125 0 L 1.828125 -14.8125 L 12.078125 -14.8125 L 12.078125 -13.140625 L 3.71875 -13.140625 L 3.71875 -8.40625 L 11.78125 -8.40625 L 11.78125 -6.75 Z M 3.71875 -6.75 "/></g></g></g><g fill="#000000" fill-opacity="1"><g transform="translate(304.379681, 315.733566)"><g/></g></g><g fill="#000000" fill-opacity="1"><g transform="translate(314.516481, 315.733566)"><g><path d="M 3.71875 -6.75 L 3.71875 -1.671875 L 12.453125 -1.671875 L 12.453125 0 L 1.828125 0 L 1.828125 -14.8125 L 12.078125 -14.8125 L 12.078125 -13.140625 L 3.71875 -13.140625 L 3.71875 -8.40625 L 11.78125 -8.40625 L 11.78125 -6.75 Z M 3.71875 -6.75 "/></g></g></g><g fill="#000000" fill-opacity="1"><g transform="translate(332.555294, 315.733566)"><g/></g></g><g fill="#000000" fill-opacity="1"><g transform="translate(342.692093, 315.733566)"><g><path d="M 2.78125 -7.359375 C 2.78125 -6.835938 2.828125 -6.316406 2.921875 -5.796875 C 3.015625 -5.273438 3.1875 -4.726562 3.4375 -4.15625 C 3.6875 -3.59375 4 -3.097656 4.375 -2.671875 C 4.757812 -2.242188 5.269531 -1.890625 5.90625 -1.609375 C 6.550781 -1.335938 7.273438 -1.203125 8.078125 -1.203125 C 9.421875 -1.203125 10.53125 -1.628906 11.40625 -2.484375 C 12.289062 -3.335938 12.734375 -4.425781 12.734375 -5.75 L 12.734375 -6.15625 L 8.234375 -6.15625 L 8.234375 -7.828125 L 14.40625 -7.828125 L 14.40625 0.078125 L 13.203125 0.078125 L 12.734375 -1.890625 C 12.015625 -1.085938 11.242188 -0.492188 10.421875 -0.109375 C 9.597656 0.273438 8.679688 0.46875 7.671875 0.46875 C 6.359375 0.46875 5.1875 0.144531 4.15625 -0.5 C 3.125 -1.15625 2.320312 -2.070312 1.75 -3.25 C 1.175781 -4.425781 0.890625 -5.757812 0.890625 -7.25 C 0.890625 -7.90625 0.953125 -8.554688 1.078125 -9.203125 C 1.203125 -9.859375 1.429688 -10.546875 1.765625 -11.265625 C 2.097656 -11.984375 2.519531 -12.613281 3.03125 -13.15625 C 3.539062 -13.707031 4.222656 -14.160156 5.078125 -14.515625 C 5.941406 -14.867188 6.914062 -15.046875 8 -15.046875 C 9.695312 -15.046875 11.085938 -14.632812 12.171875 -13.8125 C 13.265625 -12.988281 13.941406 -11.820312 14.203125 -10.3125 L 12.265625 -10.3125 C 12.066406 -11.269531 11.585938 -12.019531 10.828125 -12.5625 C 10.066406 -13.113281 9.117188 -13.390625 7.984375 -13.390625 C 6.421875 -13.390625 5.160156 -12.835938 4.203125 -11.734375 C 3.253906 -10.640625 2.78125 -9.179688 2.78125 -7.359375 Z M 2.78125 -7.359375 "/></g></g></g><g fill="#000000" fill-opacity="1"><g transform="translate(362.988605, 315.733566)"><g><path d="M 10.890625 -7.3125 C 11.390625 -7.101562 11.789062 -6.835938 12.09375 -6.515625 C 12.394531 -6.191406 12.597656 -5.851562 12.703125 -5.5 C 12.804688 -5.15625 12.867188 -4.789062 12.890625 -4.40625 C 12.921875 -4.03125 12.929688 -3.648438 12.921875 -3.265625 C 12.910156 -2.890625 12.910156 -2.53125 12.921875 -2.1875 C 12.929688 -1.84375 13.003906 -1.515625 13.140625 -1.203125 C 13.285156 -0.898438 13.503906 -0.65625 13.796875 -0.46875 L 13.796875 0 L 11.5 0 C 11.226562 -0.632812 11.09375 -1.441406 11.09375 -2.421875 L 11.09375 -3.734375 C 11.09375 -4.648438 10.894531 -5.316406 10.5 -5.734375 C 10.113281 -6.160156 9.5 -6.375 8.65625 -6.375 L 3.78125 -6.375 L 3.78125 0 L 1.890625 0 L 1.890625 -14.8125 L 8.71875 -14.8125 C 10.175781 -14.8125 11.289062 -14.46875 12.0625 -13.78125 C 12.832031 -13.101562 13.21875 -12.125 13.21875 -10.84375 C 13.21875 -9.988281 13.035156 -9.285156 12.671875 -8.734375 C 12.304688 -8.191406 11.710938 -7.71875 10.890625 -7.3125 Z M 11.25 -10.578125 C 11.25 -11.097656 11.175781 -11.53125 11.03125 -11.875 C 10.882812 -12.21875 10.671875 -12.476562 10.390625 -12.65625 C 10.109375 -12.832031 9.804688 -12.957031 9.484375 -13.03125 C 9.160156 -13.101562 8.78125 -13.140625 8.34375 -13.140625 L 3.78125 -13.140625 L 3.78125 -8.046875 L 8.34375 -8.046875 C 9.351562 -8.046875 10.085938 -8.25 10.546875 -8.65625 C 11.015625 -9.0625 11.25 -9.703125 11.25 -10.578125 Z M 11.25 -10.578125 "/></g></g></g><g fill="#000000" fill-opacity="1"><g transform="translate(382.144973, 315.733566)"><g><path d="M 9.625 -4.453125 L 3.921875 -4.453125 L 2.359375 0 L 0.34375 0 L 5.625 -14.8125 L 8.0625 -14.8125 L 13.265625 0 L 11.15625 0 Z M 9.09375 -6.03125 L 6.828125 -12.78125 L 4.390625 -6.03125 Z M 9.09375 -6.03125 "/></g></g></g><g fill="#000000" fill-opacity="1"><g transform="translate(400.183786, 315.733566)"><g><path d="M 7.96875 0 L 5.9375 0 L 0.609375 -14.8125 L 2.640625 -14.8125 L 6.984375 -2.28125 L 11.09375 -14.8125 L 13.109375 -14.8125 Z M 7.96875 0 "/></g></g></g><g fill="#000000" fill-opacity="1"><g transform="translate(418.222599, 315.733566)"><g><path d="M 9.625 -4.453125 L 3.921875 -4.453125 L 2.359375 0 L 0.34375 0 L 5.625 -14.8125 L 8.0625 -14.8125 L 13.265625 0 L 11.15625 0 Z M 9.09375 -6.03125 L 6.828125 -12.78125 L 4.390625 -6.03125 Z M 9.09375 -6.03125 "/></g></g></g><g fill="#000000" fill-opacity="1"><g transform="translate(436.261412, 315.733566)"><g><path d="M 7.671875 -1.171875 C 8.890625 -1.171875 9.820312 -1.515625 10.46875 -2.203125 C 11.113281 -2.890625 11.554688 -3.957031 11.796875 -5.40625 L 13.75 -5.40625 C 13.289062 -1.488281 11.273438 0.46875 7.703125 0.46875 L 7.4375 1.140625 C 7.613281 1.109375 7.800781 1.09375 8 1.09375 C 8.507812 1.09375 8.90625 1.210938 9.1875 1.453125 C 9.46875 1.691406 9.609375 2.023438 9.609375 2.453125 C 9.609375 3.035156 9.382812 3.492188 8.9375 3.828125 C 8.488281 4.171875 7.878906 4.34375 7.109375 4.34375 C 6.722656 4.34375 6.359375 4.296875 6.015625 4.203125 C 5.671875 4.109375 5.191406 3.925781 4.578125 3.65625 L 5 2.84375 C 5.09375 2.882812 5.242188 2.957031 5.453125 3.0625 C 5.660156 3.164062 5.828125 3.242188 5.953125 3.296875 C 6.078125 3.347656 6.234375 3.394531 6.421875 3.4375 C 6.617188 3.488281 6.804688 3.515625 6.984375 3.515625 C 7.296875 3.515625 7.554688 3.425781 7.765625 3.25 C 7.972656 3.070312 8.078125 2.851562 8.078125 2.59375 C 8.078125 2.363281 7.992188 2.179688 7.828125 2.046875 C 7.660156 1.910156 7.4375 1.84375 7.15625 1.84375 C 6.976562 1.84375 6.765625 1.898438 6.515625 2.015625 L 6.296875 1.875 L 6.921875 0.46875 C 6.160156 0.363281 5.570312 0.234375 5.15625 0.078125 C 4.75 -0.0664062 4.332031 -0.289062 3.90625 -0.59375 C 2.976562 -1.25 2.253906 -2.15625 1.734375 -3.3125 C 1.222656 -4.476562 0.96875 -5.785156 0.96875 -7.234375 C 0.96875 -7.703125 1 -8.171875 1.0625 -8.640625 C 1.125 -9.109375 1.226562 -9.601562 1.375 -10.125 C 1.519531 -10.644531 1.703125 -11.132812 1.921875 -11.59375 C 2.148438 -12.0625 2.441406 -12.507812 2.796875 -12.9375 C 3.160156 -13.375 3.566406 -13.742188 4.015625 -14.046875 C 4.472656 -14.347656 5.019531 -14.585938 5.65625 -14.765625 C 6.289062 -14.953125 6.984375 -15.046875 7.734375 -15.046875 C 10.960938 -15.046875 12.867188 -13.4375 13.453125 -10.21875 L 11.515625 -10.21875 C 11.296875 -11.269531 10.875 -12.0625 10.25 -12.59375 C 9.632812 -13.125 8.726562 -13.390625 7.53125 -13.390625 C 6.09375 -13.390625 4.953125 -12.835938 4.109375 -11.734375 C 3.273438 -10.640625 2.859375 -9.144531 2.859375 -7.25 C 2.859375 -5.394531 3.289062 -3.914062 4.15625 -2.8125 C 5.03125 -1.71875 6.203125 -1.171875 7.671875 -1.171875 Z M 7.671875 -1.171875 "/></g></g></g><g fill="#000000" fill-opacity="1"><g transform="translate(455.41778, 315.733566)"><g><path d="M 5.390625 -18.390625 C 5.734375 -18.390625 6.203125 -18.257812 6.796875 -18 C 7.398438 -17.75 7.832031 -17.625 8.09375 -17.625 C 8.4375 -17.625 8.6875 -17.878906 8.84375 -18.390625 L 10.015625 -18.390625 C 9.828125 -16.972656 9.226562 -16.265625 8.21875 -16.265625 C 7.957031 -16.265625 7.484375 -16.390625 6.796875 -16.640625 C 6.117188 -16.898438 5.6875 -17.03125 5.5 -17.03125 C 5.1875 -17.03125 4.957031 -16.78125 4.8125 -16.28125 L 3.65625 -16.28125 C 3.757812 -16.945312 3.960938 -17.460938 4.265625 -17.828125 C 4.566406 -18.203125 4.941406 -18.390625 5.390625 -18.390625 Z M 9.625 -4.453125 L 3.921875 -4.453125 L 2.359375 0 L 0.34375 0 L 5.625 -14.8125 L 8.0625 -14.8125 L 13.265625 0 L 11.15625 0 Z M 9.09375 -6.03125 L 6.828125 -12.78125 L 4.390625 -6.03125 Z M 9.09375 -6.03125 "/></g></g></g><g fill="#000000" fill-opacity="1"><g transform="translate(473.456593, 315.733566)"><g><path d="M 15.078125 -7.171875 C 15.078125 -6.109375 14.910156 -5.109375 14.578125 -4.171875 C 14.242188 -3.242188 13.769531 -2.4375 13.15625 -1.75 C 12.550781 -1.0625 11.796875 -0.519531 10.890625 -0.125 C 9.992188 0.269531 9.003906 0.46875 7.921875 0.46875 C 5.785156 0.46875 4.054688 -0.242188 2.734375 -1.671875 C 1.421875 -3.097656 0.765625 -4.972656 0.765625 -7.296875 C 0.765625 -9.597656 1.421875 -11.460938 2.734375 -12.890625 C 4.054688 -14.328125 5.78125 -15.046875 7.90625 -15.046875 C 10.070312 -15.046875 11.804688 -14.328125 13.109375 -12.890625 C 14.421875 -11.460938 15.078125 -9.554688 15.078125 -7.171875 Z M 7.90625 -13.390625 C 6.332031 -13.390625 5.0625 -12.828125 4.09375 -11.703125 C 3.132812 -10.585938 2.65625 -9.113281 2.65625 -7.28125 C 2.65625 -5.457031 3.132812 -3.988281 4.09375 -2.875 C 5.0625 -1.757812 6.335938 -1.203125 7.921875 -1.203125 C 9.484375 -1.203125 10.75 -1.753906 11.71875 -2.859375 C 12.695312 -3.972656 13.1875 -5.421875 13.1875 -7.203125 C 13.1875 -9.078125 12.703125 -10.578125 11.734375 -11.703125 C 10.773438 -12.828125 9.5 -13.390625 7.90625 -13.390625 Z M 7.90625 -13.390625 "/></g></g></g><g fill="#000000" fill-opacity="1"><g transform="translate(261.399387, 274.052846)"><g><path d="M 2.210938 0 L 21.347656 0 L 21.8125 -9.585938 L 20.921875 -9.585938 C 20.921875 -9.585938 20.527344 -5.203125 18.890625 -2.992188 C 17.820312 -1.605469 16.003906 -1.140625 14.96875 -1.140625 L 9.980469 -1.140625 C 9.300781 -1.140625 9.015625 -1.460938 9.015625 -2.101562 L 9.015625 -23.273438 C 9.015625 -23.949219 9.300781 -24.234375 9.980469 -24.234375 L 13.117188 -24.234375 L 13.117188 -25.375 L 2.210938 -25.375 L 2.210938 -24.234375 L 4.777344 -24.234375 C 5.453125 -24.234375 5.738281 -23.949219 5.738281 -23.273438 L 5.738281 -2.101562 C 5.738281 -1.460938 5.453125 -1.140625 4.777344 -1.140625 L 2.210938 -1.140625 Z M 2.210938 0 "/></g></g></g><g fill="#000000" fill-opacity="1"><g transform="translate(293.153857, 274.052846)"><g><path d="M 9.480469 -8.765625 L 13.078125 -19.566406 L 16.785156 -8.765625 Z M 1.640625 0 L 11.40625 0 L 11.40625 -1.140625 L 9.515625 -1.140625 C 8.054688 -1.140625 7.699219 -2.246094 7.699219 -3.03125 C 7.699219 -3.636719 7.949219 -4.453125 8.195312 -5.167969 L 9.015625 -7.484375 L 17.25 -7.484375 L 18.851562 -2.816406 C 18.960938 -2.566406 18.996094 -2.246094 18.996094 -2.03125 C 18.996094 -1.566406 18.460938 -1.140625 17.75 -1.140625 L 15.394531 -1.140625 L 15.394531 0 L 26.445312 0 L 26.445312 -1.140625 L 24.449219 -1.140625 C 23.488281 -1.140625 22.808594 -1.460938 22.308594 -2.707031 L 14.578125 -25.375 L 13.613281 -25.375 L 5.953125 -3.742188 C 5.523438 -2.601562 4.777344 -1.140625 2.957031 -1.140625 L 1.640625 -1.140625 Z M 1.640625 0 "/></g></g></g><g fill="#000000" fill-opacity="1"><g transform="translate(328.258165, 274.052846)"><g><path d="M 3.136719 -10.90625 L 3.386719 0.355469 L 4.207031 0.355469 L 4.347656 -1.070312 C 4.453125 -1.851562 4.667969 -2.601562 5.273438 -2.601562 C 5.523438 -2.601562 6.164062 -2.136719 7.058594 -1.460938 C 8.054688 -0.710938 10.230469 0.640625 12.507812 0.640625 C 17.960938 0.640625 20.242188 -3.171875 20.242188 -6.699219 C 20.242188 -9.089844 18.851562 -11.832031 15.46875 -13.1875 L 8.589844 -15.929688 C 6.699219 -16.679688 5.347656 -17.675781 5.347656 -19.957031 C 5.347656 -23.164062 7.378906 -24.875 9.90625 -24.875 C 13.402344 -24.875 16.820312 -21.3125 17.960938 -16.109375 L 18.816406 -16.109375 L 18.460938 -25.375 L 17.605469 -25.375 L 17.464844 -24.09375 C 17.390625 -23.59375 17.214844 -23.238281 16.75 -23.238281 C 16.324219 -23.238281 15.859375 -23.558594 15.394531 -23.878906 C 14.683594 -24.414062 12.546875 -26.015625 10.191406 -26.015625 C 6.628906 -26.015625 3.207031 -24.234375 3.207031 -19.316406 C 3.207031 -16.039062 4.847656 -13.578125 8.695312 -12.046875 L 14.113281 -9.871094 C 16.324219 -8.980469 18.105469 -7.910156 18.105469 -5.347656 C 18.105469 -3.066406 16.785156 -0.5 12.507812 -0.5 C 8.445312 -0.5 4.453125 -5.558594 3.992188 -10.90625 Z M 3.136719 -10.90625 "/></g></g></g><g fill="#000000" fill-opacity="1"><g transform="translate(358.230834, 274.052846)"><g><path d="M 2.210938 0 L 22.097656 0 L 22.523438 -9.550781 L 21.632812 -9.550781 C 21.632812 -9.550781 21.242188 -5.167969 19.601562 -2.957031 C 18.53125 -1.566406 16.714844 -1.140625 15.679688 -1.140625 L 9.980469 -1.140625 C 9.300781 -1.140625 9.015625 -1.460938 9.015625 -2.101562 L 9.015625 -12.261719 L 12.152344 -12.261719 C 14.898438 -12.261719 15.074219 -9.410156 15.074219 -7.304688 L 16.003906 -7.304688 L 16.003906 -18.460938 L 15.074219 -18.460938 C 15.074219 -16.394531 14.898438 -13.542969 12.152344 -13.542969 L 9.015625 -13.542969 L 9.015625 -23.273438 C 9.015625 -23.949219 9.300781 -24.234375 9.980469 -24.234375 L 15.71875 -24.234375 C 17.144531 -24.234375 18.78125 -23.84375 19.886719 -22.167969 C 21.3125 -19.992188 21.347656 -17.320312 21.347656 -17.320312 L 22.238281 -17.320312 L 22.097656 -25.375 L 2.210938 -25.375 L 2.210938 -24.234375 L 4.777344 -24.234375 C 5.453125 -24.234375 5.738281 -23.949219 5.738281 -23.273438 L 5.738281 -2.101562 C 5.738281 -1.460938 5.453125 -1.140625 4.777344 -1.140625 L 2.210938 -1.140625 Z M 2.210938 0 "/></g></g></g><g fill="#000000" fill-opacity="1"><g transform="translate(390.698037, 274.052846)"><g><path d="M 9.015625 -14.257812 L 9.015625 -23.273438 C 9.015625 -23.949219 9.300781 -24.234375 9.980469 -24.234375 L 13.6875 -24.234375 C 16.289062 -24.234375 18 -22.632812 18 -19.671875 C 18 -16.574219 16.714844 -14.257812 12.472656 -14.257812 Z M 2.210938 0 L 13.152344 0 L 13.152344 -1.140625 L 9.980469 -1.140625 C 9.230469 -1.140625 9.015625 -1.460938 9.015625 -2.101562 L 9.015625 -13.117188 L 12.902344 -13.117188 C 15.503906 -13.117188 16.359375 -10.371094 16.394531 -7.554688 C 16.429688 -5.167969 16.644531 -2.746094 17.429688 -1.246094 C 18.070312 -0.0351562 19.136719 0.425781 20.671875 0.425781 C 24.34375 0.425781 24.378906 -4.0625 24.378906 -5.703125 L 23.488281 -5.703125 C 23.488281 -4.207031 23.308594 -1.851562 21.953125 -1.851562 C 20.777344 -1.851562 20.5625 -2.78125 20.101562 -6.488281 C 19.460938 -11.691406 17.355469 -12.972656 15.039062 -13.402344 L 15.039062 -13.542969 C 18.460938 -13.898438 21.777344 -15.964844 21.777344 -19.671875 C 21.777344 -24.128906 17.925781 -25.375 13.898438 -25.375 L 2.210938 -25.375 L 2.210938 -24.234375 L 4.777344 -24.234375 C 5.453125 -24.234375 5.738281 -23.949219 5.738281 -23.273438 L 5.738281 -2.101562 C 5.738281 -1.460938 5.453125 -1.140625 4.777344 -1.140625 L 2.210938 -1.140625 Z M 2.210938 0 "/></g></g></g><g clip-path="url(#0f093cd5a9)"><path fill="#231f20" d="M 213.808594 282.234375 L 478.34375 282.234375 L 478.34375 283.191406 L 213.808594 283.191406 Z M 213.808594 282.234375 " fill-opacity="1" fill-rule="nonzero"/></g></svg>